<?xml version="1.0" standalone="no"?><!DOCTYPE svg PUBLIC "-//W3C//DTD SVG 1.1//EN" "http://www.w3.org/Graphics/SVG/1.1/DTD/svg11.dtd"><svg t="1515058054396" class="icon" style="" viewBox="0 0 1024 1024" version="1.1" xmlns="http://www.w3.org/2000/svg" p-id="10146" xmlns:xlink="http://www.w3.org/1999/xlink" width="18" height="18"><defs><style type="text/css"></style></defs><path d="M504.522 16.45C226.83 16.45 0.915 242.367 0.915 520.059c0 277.677 225.915 503.592 503.607 503.592s503.607-225.915 503.607-503.592c0-277.69-225.916-503.607-503.607-503.607z m0 944.66c-243.2 0-441.067-197.852-441.067-441.052 0-243.2 197.867-441.066 441.067-441.066 243.2 0 441.066 197.867 441.066 441.066 0 243.2-197.867 441.053-441.066 441.053z m278.623-472.329H535.792V237.008c0-17.269-14.001-31.27-31.27-31.27s-31.27 14.001-31.27 31.27V488.78H225.898c-17.269 0-31.27 14.001-31.27 31.27s14.001 31.27 31.27 31.27h247.353v251.774c0 17.268 14.001 31.27 31.27 31.27s31.27-14.002 31.27-31.27V551.32h247.353c17.268 0 31.27-14.001 31.27-31.27 0.002-17.269-14-31.27-31.27-31.27z" p-id="10147" fill='#999'></path></svg>