<?xml version="1.0" standalone="no"?><!DOCTYPE svg PUBLIC "-//W3C//DTD SVG 1.1//EN" "http://www.w3.org/Graphics/SVG/1.1/DTD/svg11.dtd"><svg t="1515057826825" class="icon" style="" viewBox="0 0 1024 1024" version="1.1" xmlns="http://www.w3.org/2000/svg" p-id="8603" xmlns:xlink="http://www.w3.org/1999/xlink" width="18" height="18"><defs><style type="text/css"></style></defs><path d="M211.14695 541.926059 816.880469 541.926059C833.976676 541.926059 847.839245 528.065191 847.839245 510.967284 847.839245 493.864268 833.978378 480.003401 816.880469 480.003401L211.14695 480.0034C194.043935 480.0034 180.183068 493.864268 180.183068 510.967283 180.18477 528.065191 194.045637 541.926059 211.14695 541.926059L211.14695 541.926059 211.14695 541.926059 211.14695 541.926059ZM511.825257 1021.691944C793.960311 1021.691944 1022.671432 792.980823 1022.671432 510.845767 1022.671432 228.71752 793.958609 0.0064 511.825257 0.0064 229.697011 0.0064 0.984188 228.71752 0.984188 510.845767 0.984189 792.980823 229.697011 1021.691944 511.825257 1021.691944L511.825257 1021.691944 511.825257 1021.691944 511.825257 1021.691944ZM513.902199 961.849636C265.973174 961.849636 64.983788 760.858547 64.983788 512.924412 64.983788 264.995386 265.973174 64.006 513.902199 64.006 761.836333 64.006 962.827422 264.997089 962.827422 512.924412 962.827422 760.858547 761.836333 961.849636 513.902199 961.849636L513.902199 961.849636 513.902199 961.849636 513.902199 961.849636Z" p-id="8604" fill='#999'></path></svg>