<?xml version="1.0" standalone="no"?><!DOCTYPE svg PUBLIC "-//W3C//DTD SVG 1.1//EN" "http://www.w3.org/Graphics/SVG/1.1/DTD/svg11.dtd"><svg t="1517380321423" class="icon" style="" viewBox="0 0 1025 1024" version="1.1" xmlns="http://www.w3.org/2000/svg" p-id="1931" xmlns:xlink="http://www.w3.org/1999/xlink" width="18.017578125" height="18"><defs><style type="text/css"></style></defs><path d="M89.844 62h360.771c36.684 3.579 27.841 67.251 27.841 108.619v196.948c0 42.808 8.176 95.269-20.578 107.43-18.727 7.914-68.988 2.385-93.222 2.385h-191.274c-44.22 0-104.597 10.404-111.382-27.453v-360.478c4.946-13.425 13.641-23.153 27.844-27.451v0zM139.482 143.166v256.63h260.287v-260.213h-259.074c-1.413 0.199-1.318 1.89-1.213 3.581v0zM574.095 62h360.772c14.717 5.383 24.826 15.309 27.841 32.228v350.923c-3.3 14.587-11.025 27.037-25.422 31.033-23.531 6.533-62.636 1.195-90.798 1.195h-185.228c-27.931 0-69.331 5.801-92.004-1.195-32.017-9.874-23.002-71.485-23.002-114.586v-183.819c0-49.76-11.080-108.828 27.841-115.78v0zM623.734 143.166v256.63h260.287v-260.213h-259.078c-1.408 0.199-1.314 1.89-1.207 3.581v0zM258.12 218.367c36.253-6.746 64.757 17.403 65.378 50.128 0.811 43.164-43.897 66.873-78.693 48.944-39.807-20.516-37.189-89.676 13.314-99.072v0zM742.373 218.367c85.39-15.729 83.752 117.596 0 103.844-53.294-8.751-55.015-93.712 0-103.844v0zM448.194 962h-357.139c-14.828-4.484-24.843-13.706-29.055-28.65v-359.284c3.525-10.515 11.664-22.779 24.209-26.262 23.703-6.574 62.411-1.195 90.803-1.195h185.224c27.376 0 67.213-6.022 92.009 1.195 33.545 9.762 24.209 70.377 24.209 113.395v189.787c0.001 46.428 10.147 106.866-30.26 111.011v0zM139.482 627.777v256.636h260.287v-260.217h-259.074c-1.413 0.204-1.318 1.89-1.213 3.58v0zM962.709 578.841v100.267c-2.821 33.816-0.401 72.807-1.205 108.619h-257.869v-58.485c-24.216-2.791-53.673-0.403-79.9-1.198-2.827 75.597-0.402 156.365-1.213 233.955h-47.213c-40.596-8.027-29.054-68.084-29.054-115.786v-185.012c0-27.819-5.715-69.531 1.206-91.911 8.262-26.707 44.072-22.681 79.906-22.681h175.539v158.752h81.114c0.803-52.518-1.615-108.22 1.206-158.752 39.033-2.275 75.191-1.715 77.48 32.231v0zM264.178 701.779c38.708-4.223 70.702 32.461 55.69 72.819-20.816 55.935-120.329 34.911-101.696-35.812 5.15-19.548 20.032-34.164 46.006-37.007v0zM790.8 962h-87.165c0.805-30.641-1.616-64.46 1.213-93.105h85.953v93.105zM962.709 868.893v60.877c-3.366 16.97-13.432 27.331-29.054 32.228h-61.742c0.805-30.641-1.613-64.46 1.213-93.105 29.858 0 59.723 0 89.583 0v0zM962.709 868.893z" p-id="1932" fill='#666'></path></svg>